<?xml version="1.0" encoding="utf-8"?>
<!-- Generator: Adobe Illustrator 16.0.0, SVG Export Plug-In . SVG Version: 6.00 Build 0)  -->
<!DOCTYPE svg PUBLIC "-//W3C//DTD SVG 1.1//EN" "http://www.w3.org/Graphics/SVG/1.1/DTD/svg11.dtd">
<svg version="1.1" id="Layer_1" xmlns="http://www.w3.org/2000/svg" xmlns:xlink="http://www.w3.org/1999/xlink" x="0px" y="0px"
	 width="65px" height="16.587px" viewBox="0 0 65 16.587" enable-background="new 0 0 65 16.587" xml:space="preserve">
<path opacity="0.17" d="M24.704,8.834v7.759h3.182V8.834c0-0.785,0.554-1.409,1.424-1.424c0.488-0.008,1.24-0.016,1.24-0.016v-3.14
	c0,0-0.93-0.021-1.24-0.026C26.77,4.182,24.704,6.294,24.704,8.834"/>
<polyline opacity="0.17" fill="#5E22D2" points="48.16,8.987 48.16,8.986 48.16,8.986 48.16,8.987 "/>
<path opacity="0.17" d="M56.626,7.941c-0.259-0.761-0.64-1.421-1.142-1.979c-0.502-0.559-1.126-0.997-1.871-1.312
	c-0.745-0.316-1.595-0.474-2.551-0.474c-0.907,0-1.737,0.17-2.49,0.51s-1.405,0.798-1.956,1.373
	c-0.551,0.575-0.98,1.247-1.288,2.017s-0.461,1.583-0.461,2.442c0,0.923,0.158,1.77,0.474,2.539
	c0.315,0.769,0.757,1.438,1.324,2.004c0.566,0.567,1.234,1.009,2.004,1.324c0.77,0.316,1.607,0.474,2.515,0.474
	c1.345,0,2.482-0.299,3.414-0.898c0.682-0.438,1.26-0.979,1.738-1.617l-2.347-1.76c-0.252,0.373-0.565,0.694-0.946,0.959
	c-0.479,0.333-1.081,0.499-1.811,0.499c-0.044,0-0.088-0.003-0.132-0.006c-0.002,0-0.003,0.001-0.004,0.001
	c0,0-0.286,0.007-0.685-0.084c-0.003,0-0.006-0.001-0.009-0.001c-0.059-0.014-0.119-0.029-0.183-0.047
	c-0.026-0.009-0.054-0.014-0.081-0.021c-0.357-0.105-0.685-0.275-0.984-0.51c-0.3-0.235-0.551-0.527-0.753-0.875
	c-0.203-0.349-0.337-0.766-0.401-1.252h0.014h0.001h6.138h2.813c0-0.097,0.007-0.186,0.023-0.267c0-0.081,0.009-0.171,0.024-0.268
	v-0.292C57.015,9.529,56.885,8.704,56.626,7.941 M48.16,8.986L48.16,8.986C48.16,8.986,48.16,8.986,48.16,8.986L48.16,8.986
	c0.246-0.788,0.71-1.431,1.388-1.813c0.059-0.034,0.119-0.067,0.18-0.097l0.005-0.002c0.402-0.198,0.845-0.298,1.33-0.298
	s0.903,0.073,1.251,0.219c0.348,0.146,0.64,0.332,0.875,0.559c0.234,0.227,0.413,0.47,0.534,0.729c0.08,0.17,0.135,0.33,0.169,0.479
	c0.019,0.078,0.032,0.154,0.037,0.226H48.16z"/>
<path opacity="0.17" d="M4.579-0.086C2.05-0.086,0,1.963,0,4.492v12.096h3.425v-6.565h4.187V6.883H3.425V4.527
	c0-0.814,0.66-1.474,1.474-1.474h3.879v-3.14H4.579z"/>
<path opacity="0.17" d="M38.213,6.735c-0.941-0.275-2.388-0.804-2.342-1.998c0.069-1.216,1.033-1.664,1.974-1.652
	c0.75,0.009,1.539,0.331,2.186,1.396l2.638-1.71C41.427,0.912,39.739,0,37.869,0c-2.502,0-5.165,1.501-5.234,4.761
	c-0.046,3.283,3.122,4.408,4.774,4.821c1.148,0.298,2.618,0.918,2.526,2.456c-0.047,1.056-0.937,1.739-2.199,1.716
	c-0.939,0-2.141-0.382-2.922-2.048l-2.635,1.708c1.586,2.964,3.894,3.445,5.692,3.445c2.594,0,5.131-1.495,5.269-4.663
	C43.278,8.568,40.716,7.377,38.213,6.735"/>
<path opacity="0.17" d="M62.822,12.165V6.94h1.755V4.323v-0.01h-1.755V1.16h-3.182v3.164h-1.17V6.94h1.17l-0.001,5.296
	c-0.119,3.229,2.417,4.402,5.36,3.899v-2.775C63.612,13.552,62.822,12.955,62.822,12.165"/>
<path opacity="0.17" d="M16.217,13.891c-1.864,0-3.375-1.511-3.375-3.375s1.511-3.376,3.375-3.376c0.613,0,1.188,0.165,1.684,0.451
	l1.467-2.547c-0.927-0.536-2.003-0.843-3.151-0.843c-3.488,0-6.315,2.827-6.315,6.315s2.827,6.315,6.315,6.315
	c1.744,0,3.323-0.708,4.466-1.851l-2.079-2.079C17.994,13.513,17.15,13.891,16.217,13.891"/>
<path opacity="0.17" d="M19.593,10.516c0,0.615-0.166,1.191-0.454,1.688l2.544,1.472c0.539-0.93,0.849-2.009,0.849-3.16
	c0-1.745-0.708-3.324-1.851-4.467l-2.079,2.079C19.214,8.739,19.593,9.583,19.593,10.516"/>
</svg>
